<svg id="Capa_4" data-name="Capa 4" xmlns="http://www.w3.org/2000/svg" viewBox="0 0 292.84 564.5"><defs><style>.cls-1{fill:#211610;}.cls-2{fill:#009640;}.cls-3{fill:#0b4924;}.cls-4{fill:#e5e5e4;}.cls-5,.cls-9{fill:#adadad;}.cls-6{fill:#314376;}.cls-7{fill:#2682bc;}.cls-8{fill:#06ff52;}.cls-9{opacity:0.5;}.cls-10{fill:#fff;}.cls-11{fill:#e84a6f;}</style></defs><path class="cls-1" d="M242.29,486.12l-.15.11v-280H228.76V417.82H199.89V218.56H184.14V417.82H121.31V221.09H107.92V417.82L72.77,438.45V218.56H57V517.87l-.33-.25H52.21V557.8l9.71,6.7L77.58,563V527.23L72.77,524V460.06h35.15V486.4l-.37-.28h-3.87v34.62l8.38,5.78,13.49-1.26V494.4l-4.24-2.84v-31.5h62.83v63.73L179,527.23V563l15.66,1.46,9.72-6.7V517.62h-4.49V460.06l28.87-21.52v52.9h0l-4.42,3v30.86l13.49,1.26,8.37-5.78V486.12ZM77,447.68l30.9-19.12v19.12Zm44.29,0V428.56h62.83v19.12Zm78.58-19.12H227l-27.06,19.12Z" transform="translate(0 0)"/><path class="cls-2" d="M252.77,210.93V197.57a4.14,4.14,0,0,0-4.14-4.14H105.77a4.09,4.09,0,0,0-1.53.3c-1.52.61-53.76,17.11-54.32,17.39a4.14,4.14,0,0,0-2.28,3.7v13.36H198.77Z" transform="translate(0 0)"/><path class="cls-3" d="M202,208.34l50.74-10.77a4.14,4.14,0,0,0-4.14-4.14H105.77a4.09,4.09,0,0,0-1.53.3c-1.14.46-30.69,9.81-45.71,14.61Z" transform="translate(0 0)"/><path class="cls-4" d="M22.61,18.26H271.69a7.92,7.92,0,0,1,7.92,7.92V189.53a0,0,0,0,1,0,0H14.69a0,0,0,0,1,0,0V26.18A7.92,7.92,0,0,1,22.61,18.26Z"/><path class="cls-5" d="M2.22,189.53H292.08a.76.76,0,0,1,.76.76v3.33a10.94,10.94,0,0,1-10.94,10.94H12.4A10.94,10.94,0,0,1,1.46,193.62v-3.33a.76.76,0,0,1,.76-.76Z"/><path class="cls-6" d="M25.62,30.93V178.72A2.33,2.33,0,0,0,28,181.06H83.22V28.6H28A2.33,2.33,0,0,0,25.62,30.93Zm242.83-1a2,2,0,0,1,.2.66A2,2,0,0,0,268.45,29.92Zm.2,149.16a2,2,0,0,1-.2.65A2,2,0,0,0,268.65,179.08Z" transform="translate(0 0)"/><path class="cls-7" d="M57.5,75.36H37.23v3.49H57.5ZM60.62,38.7H37.23v3.49H60.62ZM53.14,90H37.23v3.48H53.14ZM63.92,60.7H37.23v3.48H63.92ZM53.14,53.37H37.23v3.48H53.14ZM63.6,82.69H37.23v3.49H63.6ZM37.23,108.18H61.12v-3.49H37.23Zm0-58.66H66.67V46H37.23Zm0,22H66.67V68H37.23Zm0,29.33H64.65V97.36H37.23ZM266.34,28.6h-9.69V9.15H210.88V28.6H83.22V181.06H266.34a2.34,2.34,0,0,0,2.34-2.34V30.93A2.33,2.33,0,0,0,266.34,28.6Z" transform="translate(0 0)"/><path class="cls-8" d="M171.48,174.12h23.63v-3.48H171.48ZM180.07,156h15v-3.48h-15Zm15-45.2v-3.48H180.6v3.48Zm0-57.72H180V56.6h15.08Zm0,18.08H171.48v3.48h23.63ZM190.88,147h15.25v-3.48H190.88Zm.4-99.44h15V44.08h-15Zm35.66-10.85h21.51V34.78H226.94Zm.1-11.82h-4.75v1.94H227Zm-4.75,24.72v1.94h31V49.61Zm-6.83,21.71h19.38V69.39H215.46Z" transform="translate(0 0)"/><path class="cls-9" d="M260.82,2.93a4.7,4.7,0,0,1,.4,1.91V92.31a4.85,4.85,0,0,1-4.84,4.85H211.5l-.22,0a4.84,4.84,0,0,0,4.45,2.93H260.6a4.85,4.85,0,0,0,4.85-4.84V7.75A4.83,4.83,0,0,0,260.82,2.93Zm-192,125.93H8.94a4.42,4.42,0,0,0-4.42,4.43v27.2a4.42,4.42,0,0,0,4.42,4.43H68.79a4.43,4.43,0,0,0,4.43-4.43v-27.2A4.43,4.43,0,0,0,68.79,128.86Z" transform="translate(0 0)"/><path class="cls-10" d="M256.38,0H211.5a4.84,4.84,0,0,0-4.84,4.84V92.31a4.85,4.85,0,0,0,4.84,4.85h44.88a4.85,4.85,0,0,0,4.84-4.85V4.84A4.84,4.84,0,0,0,256.38,0Zm.27,85.54H210.88V9.15h45.77Zm-77.2-23.38H135.83v3.48h43.62Zm-75,39.64h40.74V98.32H104.44Zm61.68-30.6h-24v3.48h24Zm-24,39.64h32.05v-3.48H142.1ZM137.2,71.2H104.44v3.48H137.2Zm4.9-14.6h32.05V53.12H142.1Zm-11,5.56H104.44v3.48h26.63Zm6.13-9H104.44V56.6H137.2Zm0,54.24H104.44v3.48H137.2Zm-.06,45.2h-32.7V156h32.7ZM104.44,147H145v-3.48H104.44Zm37.69,9h31.81v-3.48H142.13Zm37.32-39.64H135.83v3.48h43.62ZM145.18,44.08H104.44v3.48h40.74Zm-40.74,121h26.48V161.6H104.44Zm0-45.2h26.63V116.4H104.44ZM121.8,80.24H98.11v3.48H121.8Zm112,52.24,3.28,13.12,2.57-3.95,4,5.24,1.5-1.2-4.06-5.14,4.46-1.56ZM215.46,41.66h10.69V39.72H215.46ZM253.3,15H215.46v1.94H253.3ZM236.83,29.83H215.46v1.94h21.37ZM64.27,124.66H4.43A4.43,4.43,0,0,0,0,129.09v27.2a4.43,4.43,0,0,0,4.43,4.43H64.27a4.43,4.43,0,0,0,4.43-4.43v-27.2A4.43,4.43,0,0,0,64.27,124.66ZM215.46,34.78v1.93H225V34.78Zm19.38,19.77H215.46v1.94h19.38Zm.9-9.88H215.46V46.6h20.28Zm-9.59,16.76H253.3V59.5H226.15Zm2.78-34.6H253.3V24.89H228.93ZM104.44,174.12h32.22v-3.48H104.44Zm37.69,0h23.7v-3.48h-23.7Zm-6.51-9h43.87V161.6H135.62Zm6.48-39.64h-44v3.48h44ZM150,47.56h36.26V44.08H150Zm-.1,99.44h36.22v-3.48H149.87Zm72.39-80.62h31V64.44h-31ZM150.31,101.8h35.92V98.32H150.31Z" transform="translate(0 0)"/><path class="cls-11" d="M98.11,138h50.53v-3.48H98.11ZM148.51,35H98.11v3.48h50.4ZM98.11,92.76h50.53V89.28H98.11Zm129.9-53v1.94H253.3V39.72Zm4.87-19.78H215.46v1.94h17.42ZM215.46,61.43H224V59.5h-8.55ZM17.82,145.54l10.59,5.79V147l-7.09-3.19v-.1l7.09-3.25v-4.29L17.82,142Zm23.73-5.08,7.2,3.23v.1l-7.2,3.28v4.26l10.71-5.79V142l-10.71-5.78Zm-11.76,14h3.49l6.56-24.95H36.35Z" transform="translate(0 0)"/></svg>