<?xml version="1.0" encoding="utf-8"?>
<!-- Generator: Adobe Illustrator 21.1.0, SVG Export Plug-In . SVG Version: 6.00 Build 0)  -->
<svg version="1.1" id="Colectivo" xmlns="http://www.w3.org/2000/svg" xmlns:xlink="http://www.w3.org/1999/xlink" x="0px" y="0px"
	 viewBox="0 0 363.1 98.5" style="enable-background:new 0 0 363.1 98.5;" xml:space="preserve">
<style type="text/css">
	.st0{fill:#101206;}
	.st1{fill:#676768;}
	.st2{fill:#2A2A21;}
	.st3{fill:#C3C2C2;}
	.st4{fill:#FFFFFF;}
	.st5{fill:#4B6F34;}
	.st6{fill:#F48B00;}
	.st7{fill:#B50000;}
	.st8{fill:#788A9A;}
	.st9{fill:#000200;}
</style>
<g id="_x33_7">
	<g id="Ruedas_4_">
		<rect x="55.8" y="65.1" class="st0" width="230" height="18.7"/>
		<g id="Rueda_trasera_4_">
			<path class="st1" d="M286.2,95.6c0,0-3,2.5-3.2,2.4c-0.2-0.2-0.8-8-0.6-10.3l2.4,0C284.7,88.8,284.8,91.3,286.2,95.6z"/>
			<circle class="st2" cx="264.6" cy="82.5" r="16.1"/>
			<path class="st3" d="M264.6,94.8c6.8,0,12.4-5.5,12.4-12.4c0-6.8-5.5-12.4-12.4-12.4s-12.4,5.5-12.4,12.4
				C252.2,89.3,257.8,94.8,264.6,94.8z"/>
			<path class="st1" d="M255.5,82.5c0,5,4.1,9,9,9c5,0,9-4.1,9-9c0-5-4.1-9-9-9C259.6,73.4,255.5,77.5,255.5,82.5z M258.5,82.5
				c0-3.3,2.7-6.1,6.1-6.1s6.1,2.7,6.1,6.1c0,3.3-2.7,6.1-6.1,6.1S258.5,85.8,258.5,82.5z M260.9,82.5c0,2,1.6,3.6,3.6,3.6
				c2,0,3.6-1.6,3.6-3.6c0-2-1.6-3.6-3.6-3.6C262.6,78.8,260.9,80.5,260.9,82.5z"/>
		</g>
		<g id="Rueda_delantera_4_">
			<path class="st1" d="M98.5,95.6c0,0-3,2.5-3.2,2.4c-0.2-0.2-0.8-8-0.6-10.3l2.4,0C97,88.8,97.1,91.3,98.5,95.6z"/>
			<circle class="st2" cx="77" cy="82.5" r="16.1"/>
			<path class="st3" d="M77,94.8c6.8,0,12.4-5.5,12.4-12.4c0-6.8-5.5-12.4-12.4-12.4s-12.4,5.5-12.4,12.4
				C64.6,89.3,70.2,94.8,77,94.8z"/>
			<path class="st1" d="M67.9,82.5c0,5,4.1,9,9,9c5,0,9-4.1,9-9c0-5-4.1-9-9-9C72,73.4,67.9,77.5,67.9,82.5z M70.9,82.5
				c0-3.3,2.7-6.1,6.1-6.1s6.1,2.7,6.1,6.1c0,3.3-2.7,6.1-6.1,6.1S70.9,85.8,70.9,82.5z M73.3,82.5c0,2,1.6,3.6,3.6,3.6
				c2,0,3.6-1.6,3.6-3.6c0-2-1.6-3.6-3.6-3.6C75,78.8,73.3,80.5,73.3,82.5z"/>
		</g>
	</g>
	<path id="Base_4_" class="st4" d="M1.2,84.8c-0.7-1.2-0.6-4.4-0.5-5.6c0-1.2,0.1-2.2,0.3-4.4s0.7-6.2,2.3-9c1.9-3.4,3.1-5,3.7-9.8
		c0.6-4.8,1.7-14.4,1.7-19.3c0-4.9,1.3-26.2,1.5-28.7c0.1-2.5,0.6-4.6,1.6-5.9C13.5-0.3,22.5,0,22.5,0l332.2,0c0,0,1,0,1.7,0.5
		c0,0,0.3,0.2,0.4,0.3c1.7,1.3,2.4,3.7,2.6,6.3c0.2,2,1.2,66.3,1.2,67.3c0.1,1.5,0.7,2.5,1.5,3.2c0.7,0.6,0.9,2,0.9,3.5
		c0,0.9-0.1,1.8-0.2,2.7c-0.4,2.3-0.8,3.7-4.9,3.9c-0.7,0-1.5,0-2.3,0.1c-1.7,0-73.3-0.1-73.3-0.1v-4.5c0-9.8-8-17.8-17.8-17.8
		c-9.8,0-17.8,8-17.8,17.8v4.5H94.7v-4.5c0-9.8-8-17.8-17.8-17.8c-9.8,0-17.8,8-17.8,17.8v4.5H22.5c0,0-5.9,0-11.1-0.2
		c-2.7-0.1-6.5-0.4-7.6-0.8S1.9,86,1.2,84.8z"/>
	<path id="Color_6_" class="st5" d="M356.8,0.8c-0.1-0.1-0.4-0.3-0.4-0.3C355.7,0,354.7,0,354.7,0H22.5c0,0-9-0.3-10.7,2.1
		c-0.1,0.1-0.2,0.2-0.2,0.4h346.6C357.9,1.8,357.4,1.2,356.8,0.8z M360,32.2l-25.6,29.4c-1.1,1.3-2.8,2-4.5,2L29,63.7
		c-2.7,0-5.4,0.5-7.9,1.6c-3.4,1.4-9.7,3.1-18.8,2.6c-0.8,2.4-1.2,5.2-1.3,6.9c-0.2,2.2-0.3,3.2-0.3,4.4s-0.2,4.4,0.5,5.6
		c0.7,1.2,1.4,1.5,2.5,1.9c1.1,0.4,4.9,0.7,7.6,0.8c5.3,0.2,11.1,0.2,11.1,0.2h36.5v-4.5c0-5,2.1-9.5,5.4-12.7H24.3v-1.6h42
		c3-2.2,6.6-3.5,10.6-3.5c4,0,7.6,1.3,10.6,3.5H254c3-2.2,6.6-3.5,10.6-3.5c4,0,7.6,1.3,10.6,3.5h85.4C360.5,61,360.2,45.6,360,32.2
		z M94.7,83.2v4.5h152.1v-4.5c0-5,2.1-9.5,5.4-12.7H89.3C92.6,73.7,94.7,78.2,94.7,83.2z M362.2,77.6c-0.9-0.7-1.5-1.8-1.5-3.2
		c0-0.1,0-1.6,0-3.9H277c3.3,3.2,5.4,7.7,5.4,12.7v4.5c0,0,71.6,0.1,73.3,0.1c0.8,0,1.5,0,2.3-0.1c4.2-0.1,4.6-1.6,4.9-3.9
		c0.1-0.9,0.2-1.8,0.2-2.7C363.1,79.6,362.9,78.2,362.2,77.6z"/>
	<g>
		<path class="st1" d="M132.9,51.1c0.6,0,1.3,0.2,1.8,0.5c0.2,0.1,0.3,0.2,0.5,0.2l12.7,0c-0.4,0.3-1,0.5-1.8,0.5h-0.4
			c-0.6,0-1,0.4-1,1c0,0.4,0.2,0.7,0.5,0.9c-0.3,0.3-1,0.7-1.9,0.7H142c-0.6,0-1,0.4-1,1c0,0.4,0.2,0.7,0.5,0.9
			c-0.3,0.3-1,0.7-1.9,0.7h-3.1c-0.3,0-0.6,0.1-0.8,0.4c-0.7,0.9-1.7,1.4-2.8,1.4s-2.1-0.5-2.8-1.4c-0.2-0.2-0.5-0.4-0.8-0.4h-3.1
			c-0.9,0-1.6-0.3-1.9-0.7c0.3-0.2,0.5-0.5,0.5-0.9c0-0.6-0.4-1-1-1h-1.3c-0.9,0-1.6-0.3-1.9-0.7c0.3-0.2,0.5-0.5,0.5-0.9
			c0-0.6-0.4-1-1-1h-0.4c-0.8,0-1.4-0.2-1.8-0.5h12.7c0.2,0,0.4-0.1,0.5-0.2C131.6,51.3,132.2,51.1,132.9,51.1 M132.9,50.1
			c-0.9,0-1.7,0.3-2.4,0.7h-13.3c-0.4,0-0.7,0.2-0.7,0.5c0,1.1,1.4,2.1,3.1,2.1h0.4c-0.4,0-0.7,0.2-0.7,0.5c0,1.1,1.4,2.1,3.1,2.1
			h1.3c-0.4,0-0.7,0.2-0.7,0.5c0,1.1,1.4,2.1,3.1,2.1h3.1c0.9,1.1,2.1,1.8,3.6,1.8c1.4,0,2.7-0.7,3.6-1.8h3.1c1.7,0,3.1-0.9,3.1-2.1
			c0-0.3-0.3-0.5-0.7-0.5h1.3c1.7,0,3.1-0.9,3.1-2.1c0-0.3-0.3-0.5-0.7-0.5h0.4c1.7,0,3.1-0.9,3.1-2.1c0-0.3-0.3-0.5-0.7-0.5h-13.3
			C134.5,50.4,133.7,50.1,132.9,50.1L132.9,50.1z"/>
	</g>
	<g id="Luces_4_">
		<path class="st6" d="M358.1,45.8c0,1.5,0.9,2.7,2.3,3.2l-0.1-6.4C359,43.1,358.1,44.4,358.1,45.8z M14.7,74.1v1.8
			c0,0.1,0.1,0.3,0.3,0.3h3.6c0.1,0,0.3-0.1,0.3-0.3v-1.8c0-0.1-0.1-0.3-0.3-0.3H15C14.9,73.8,14.7,73.9,14.7,74.1z M340.5,74.2v1.6
			c0,0.2,0.2,0.4,0.4,0.4h3.3c0.2,0,0.4-0.2,0.4-0.4v-1.6c0-0.2-0.2-0.4-0.4-0.4h-3.3C340.7,73.8,340.5,74,340.5,74.2z"/>
		<path class="st7" d="M358.2,53.1c0,1.5,0.9,2.7,2.3,3.2l-0.1-6.4C359.1,50.4,358.2,51.6,358.2,53.1z M358.9,60
			c0,1.1,0.7,2,1.7,2.3l-0.1-4.7C359.5,58.1,358.9,59,358.9,60z M14.7,79.4v1.8c0,0.1,0.1,0.3,0.3,0.3h3.6c0.1,0,0.3-0.1,0.3-0.3
			v-1.8c0-0.1-0.1-0.3-0.3-0.3H15C14.9,79.1,14.7,79.2,14.7,79.4z M340.5,79.5v1.6c0,0.2,0.2,0.4,0.4,0.4h3.3c0.2,0,0.4-0.2,0.4-0.4
			v-1.6c0-0.2-0.2-0.4-0.4-0.4h-3.3C340.7,79.1,340.5,79.3,340.5,79.5z"/>
	</g>
	<g id="Ventanas_4_">
		<g id="Ventana_esquinera_4_">
			<path class="st8" d="M327.5,43.9c4.8,0,16.8-16.3,16.8-18.8V10.4c0-0.4-0.2-0.6-0.4-0.6h-16.4c-0.2,0-0.4,0.3-0.4,0.6v32.9
				C327.1,43.7,327.3,43.9,327.5,43.9z"/>
			<path class="st9" d="M326.4,10.4v32.9c0,0.7,0.5,1.3,1.1,1.3c5.1,0,17.5-16.5,17.5-19.5V10.4c0-0.7-0.5-1.4-1.1-1.4h-16.4
				C326.9,9.1,326.4,9.7,326.4,10.4z M327.8,10.5h7.3v14.9h-7.3L327.8,10.5z M343.6,25.1c0,0.1,0,0.2-0.1,0.3h-7.3V10.5h7.3
				L343.6,25.1z M327.8,43.2l0-16.7h15.3C340.9,31.1,331.6,42.5,327.8,43.2z"/>
		</g>
		<g id="Ventana_chica_4_">
			<path class="st8" d="M322.6,43.9c0.5,0,0.8-0.3,0.8-0.6V10.4c0-0.3-0.4-0.6-0.8-0.6h-23.2c-0.5,0-0.8,0.3-0.8,0.6v32.9
				c0,0.3,0.4,0.6,0.8,0.6H322.6z"/>
			<path class="st9" d="M297.8,10.4v32.9c0,0.7,0.7,1.3,1.6,1.3h23.2c0.9,0,1.6-0.6,1.6-1.3V10.4c0-0.7-0.7-1.4-1.6-1.4h-23.2
				C298.5,9.1,297.8,9.7,297.8,10.4z M299.4,10.5h11.1v25.6h-11.2V10.6C299.3,10.5,299.3,10.5,299.4,10.5z M322.7,10.6v25.5h-11.2
				V10.5h11.1C322.7,10.5,322.7,10.5,322.7,10.6z M299.3,43.2v-6h23.5v6c0,0-0.1,0-0.1,0h-23.2C299.3,43.2,299.3,43.2,299.3,43.2z"
				/>
		</g>
		<g id="Ventana_23_">
			<path class="st8" d="M294.6,43.9c0.2,0,0.4-0.3,0.4-0.6V10.4c0-0.4-0.2-0.6-0.4-0.6h-36.3c-0.2,0-0.4,0.3-0.4,0.6v32.9
				c0,0.4,0.2,0.6,0.4,0.6H294.6z"/>
			<path class="st9" d="M257.1,10.4v32.9c0,0.7,0.5,1.3,1.1,1.3h36.3c0.6,0,1.1-0.6,1.1-1.3V10.4c0-0.7-0.5-1.4-1.1-1.4h-36.3
				C257.6,9.1,257.1,9.7,257.1,10.4z M258.6,10.5h17.3v25.6h-17.3L258.6,10.5z M294.2,10.5l0,25.6h-17.3V10.5H294.2z M258.6,43.2
				l0-6h35.6l0,6H258.6z"/>
		</g>
		<g id="Ventana_22_">
			<path class="st8" d="M253.9,43.9c0.2,0,0.4-0.3,0.4-0.6V10.4c0-0.4-0.2-0.6-0.4-0.6h-36.3c-0.2,0-0.4,0.3-0.4,0.6v32.9
				c0,0.4,0.2,0.6,0.4,0.6H253.9z"/>
			<path class="st9" d="M216.4,10.4v32.9c0,0.7,0.5,1.3,1.1,1.3h36.3c0.6,0,1.1-0.6,1.1-1.3V10.4c0-0.7-0.5-1.4-1.1-1.4h-36.3
				C216.9,9.1,216.4,9.7,216.4,10.4z M217.9,10.5h17.3v25.6h-17.3L217.9,10.5z M253.5,10.5l0,25.6h-17.3V10.5H253.5z M217.9,43.2
				l0-6h35.6l0,6H217.9z"/>
		</g>
		<g id="Ventana_21_">
			<path class="st8" d="M213,43.9c0.2,0,0.6-0.3,0.6-0.6V10.4c0-0.4-0.2-0.6-0.4-0.6h-36.3c-0.2,0-0.4,0.3-0.4,0.6v32.9
				c0,0.4,0,0.6,0.2,0.6H213z"/>
			<path class="st9" d="M175.8,10.4v32.9c0,0.7,0.3,1.3,0.9,1.3H213c0.6,0,1.3-0.6,1.3-1.3V10.4c0-0.7-0.5-1.4-1.1-1.4h-36.3
				C176.3,9.1,175.8,9.7,175.8,10.4z M177.2,10.5h17.3v25.6h-17.3L177.2,10.5z M212.8,10.5l0,25.6h-17.3V10.5H212.8z M177.2,43.2
				l0-6h35.6l0,6H177.2z"/>
		</g>
		<g id="Ventana_20_">
			<path class="st8" d="M172.5,43.9c0.2,0,0.4-0.3,0.4-0.6V10.4c0-0.4-0.2-0.6-0.4-0.6h-36.3c-0.2,0-0.4,0.3-0.4,0.6v32.9
				c0,0.4,0.2,0.6,0.4,0.6H172.5z"/>
			<path class="st9" d="M135.1,10.4v32.9c0,0.7,0.5,1.3,1.1,1.3h36.3c0.6,0,1.1-0.6,1.1-1.3V10.4c0-0.7-0.5-1.4-1.1-1.4h-36.3
				C135.6,9.1,135.1,9.7,135.1,10.4z M136.5,10.5h17.3v25.6h-17.3L136.5,10.5z M172.1,10.5l0,25.6h-17.3V10.5H172.1z M136.5,43.2
				l0-6h35.6l0,6H136.5z"/>
		</g>
		<g id="Ventana_19_">
			<path class="st8" d="M131.8,43.9c0.2,0,0.4-0.3,0.4-0.6V10.4c0-0.4-0.2-0.6-0.4-0.6H95.6c-0.2,0-0.4,0.3-0.4,0.6v32.9
				c0,0.4,0.2,0.6,0.4,0.6H131.8z"/>
			<path class="st9" d="M94.4,10.4v32.9c0,0.7,0.5,1.3,1.1,1.3h36.3c0.6,0,1.1-0.6,1.1-1.3V10.4c0-0.7-0.5-1.4-1.1-1.4H95.5
				C94.9,9.1,94.4,9.7,94.4,10.4z M95.8,10.5h17.3v25.6H95.8L95.8,10.5z M131.4,10.5l0,25.6h-17.3V10.5H131.4z M95.8,43.2l0-6h35.6
				l0,6H95.8z"/>
		</g>
		<g id="Ventana_18_">
			<path class="st8" d="M91.1,43.9c0.2,0,0.4-0.3,0.4-0.6V10.4c0-0.4-0.2-0.6-0.4-0.6H54.9c-0.2,0-0.4,0.3-0.4,0.6v32.9
				c0,0.4,0.2,0.6,0.4,0.6H91.1z"/>
			<path class="st9" d="M53.7,10.4v32.9c0,0.7,0.5,1.3,1.1,1.3H91c0.6,0,1.1-0.6,1.1-1.3V10.4c0-0.7-0.5-1.4-1.1-1.4H54.8
				C54.2,9.1,53.7,9.7,53.7,10.4z M55.1,10.5h17.3v25.6H55.1L55.1,10.5z M90.7,10.5l0,25.6H73.4V10.5H90.7z M55.1,43.2l0-6h35.6l0,6
				H55.1z"/>
		</g>
		<g id="Ventana_delantera_1_">
			<path class="st8" d="M26.7,49.4c0.1,0,0-0.3,0-0.8V10.7c0-0.5,0.2-0.8,0.2-0.9l23.8,0.1c-0.1,0,0,0.3,0,0.8v29.4
				c0,6.5-2.4,9.3-8,9.3H26.7z"/>
			<path class="st9" d="M25.9,10.7v37.9c0,0.9,0.3,1.6,0.7,1.6h16.1c6.8,0,8.7-4.1,8.7-10V10.7c0-0.9-0.3-1.6-0.7-1.6H26.7
				C26.3,9.1,25.9,9.8,25.9,10.7z M27.4,10.5h10.7V13H27.4v-2.3C27.4,10.6,27.4,10.6,27.4,10.5z M50,10.7V13H39.2v-2.4H50
				C50,10.6,50,10.6,50,10.7z M27.4,48.6V14H50v26c0,6.2-2,8.6-7.3,8.6H27.4C27.4,48.6,27.4,48.6,27.4,48.6z"/>
		</g>
		<g id="Ventanilla_conductor_4_">
			<path class="st8" d="M12.8,64.2c-0.5,0-1-0.2-1.3-0.6c-1.2-1.4-0.7-5.1-0.3-8.8c0.1-0.7,0.2-1.4,0.3-2.1c0.2-1.5,0.5-4.6,0.9-8.6
				c1-10,2.5-25.2,3-28c0.4-2,1.4-2.7,2.3-2.7c0.9,0,1.7,0.8,1.7,2.6v44.5C19.3,63.9,16.5,64.2,12.8,64.2z"/>
			<path d="M17.6,13.9c0.7,0,1.2,0.7,1.2,2.1c0,2.8,0,41.5,0,44.5c0,2.8-2.2,3.2-6,3.2c-2.6,0-1.3-6.5-0.8-10.9
				c0.6-5.2,3.2-32.7,3.9-36.6C16.1,14.7,16.9,13.9,17.6,13.9 M17.6,12.9c-1,0-2.3,0.8-2.7,3.1c-0.5,2.8-2,18-3,28.1
				c-0.4,4-0.7,7.1-0.9,8.5c-0.1,0.7-0.2,1.4-0.3,2.1c-0.6,4.6-0.9,7.7,0.4,9.1c0.4,0.5,1,0.7,1.7,0.7c3,0,7,0,7-4.2V16
				C19.8,13.8,18.7,12.9,17.6,12.9L17.6,12.9z"/>
		</g>
		<g id="Ventana_conductor_4_">
			<path class="st8" d="M3.3,66.3c0,0-0.1,0-0.1,0c-0.2-0.1-0.4-0.3-0.4-0.5c0-13.6,6.9-57.9,6.9-58.4C9.8,7.1,10,7,10.2,7
				c0,0,0,0,0,0c0.3,0,0.5,0.2,0.5,0.5l0,0.7c0,0.7-0.1,2.2-0.2,4.2C10,19.6,9.2,32.9,9.2,36.7C9.2,41.9,8,52,7.5,56.1
				c-0.5,4.2-1.6,6-3.1,8.7C4.2,65.2,4,65.6,3.7,66C3.6,66.2,3.5,66.3,3.3,66.3z"/>
			<path d="M10.2,8.1L10.2,8.1C10.2,8.1,10.2,8.2,10.2,8.1c0,0.1,0,0.2,0,0.3c0,0,0,0.1,0,0.1c0,0.1,0,0.2,0,0.3c0,0,0,0.1,0,0.1
				c0,0.1,0,0.2,0,0.3c0,0.1,0,0.2,0,0.3c0,0.1,0,0.1,0,0.2c0,0.2,0,0.3,0,0.5c0,0,0,0,0,0.1c0,0.4-0.1,0.9-0.1,1.5
				c0,0.1,0,0.2,0,0.2c0,0.1,0,0.2,0,0.3c0,0.3,0,0.7-0.1,1c0,0.2,0,0.4,0,0.6c0,0,0,0,0,0.1c0,0.3,0,0.6-0.1,0.9c0,0.1,0,0.1,0,0.2
				c0,0.3,0,0.6-0.1,1c0,0,0,0,0,0c0,0.3,0,0.6-0.1,0.9c0,0.2,0,0.4,0,0.6c0,0.2,0,0.3,0,0.5c0,0.2,0,0.3,0,0.5c0,0.2,0,0.4,0,0.7
				c0,0.2,0,0.3,0,0.5c0,0.2,0,0.4,0,0.6c0,0.3,0,0.5,0,0.8c0,0.1,0,0.2,0,0.3c0,0.2,0,0.5,0,0.7c0,0.2,0,0.4,0,0.5
				c0,0.1,0,0.3,0,0.4c0,0.2,0,0.5,0,0.7c0,0.1,0,0.3,0,0.4c0,0.2,0,0.5,0,0.7c0,0.2,0,0.3,0,0.5c0,0.2,0,0.4,0,0.6
				c0,0.2,0,0.3,0,0.5c0,0.2,0,0.4,0,0.7c0,0.2,0,0.3,0,0.4c0,0.2,0,0.4,0,0.6c0,0.1,0,0.3,0,0.4c0,0.2,0,0.5,0,0.7
				c0,0.1,0,0.1,0,0.2c0,0.3,0,0.5,0,0.8c0,0.1,0,0.2,0,0.4c0,0.2,0,0.4,0,0.6c0,0.1,0,0.2,0,0.3c0,0.2,0,0.4,0,0.6
				c0,0.1,0,0.1,0,0.2c0,0.2,0,0.5,0,0.7c0,0.1,0,0.2,0,0.3c0,0.2,0,0.4,0,0.6c0,0.1,0,0.1,0,0.2c0,0.2,0,0.4,0,0.6c0,0,0,0,0,0
				c0,0.2,0,0.4,0,0.6c0,0,0,0,0,0c0,0.4,0,0.8,0,1.1C8.7,41.6,7.6,51.3,7,56c-0.6,4.8-1.8,6.3-3.7,9.8v0v0
				c-0.2,0.3-0.3,0.6-0.4,0.9c0.1,0,0.1,0.1,0.2,0.1c0.1,0,0.2,0,0.3,0c0.4,0,0.7-0.2,0.9-0.5c0.2-0.4,0.5-0.8,0.7-1.2
				c1.5-2.6,2.6-4.6,3.2-8.9C8.5,52,9.7,41.9,9.7,36.7c0-3.8,0.8-17.1,1.2-24.3c0.1-2.1,0.2-3.6,0.2-4.3l0-0.7c0-0.5-0.4-0.9-0.9-1
				c-0.1,0.5-0.1,1-0.1,1.5C10.2,8,10.2,8.1,10.2,8.1z"/>
		</g>
	</g>
	<path id="Espejo_4_" class="st2" d="M13.8,10.3c0,0-0.1,0-0.2,0c-0.8,0.3-1.3,1.6-1.4,1.6c0,0,0,0,0,0.1l-0.1,0.8
		c-1.7,0.5-5,1.5-7.2,2.3C2,16.1,0.2,17.4,0,20c0,0.1,0,0.2,0,0.2l0,8.4c0,3,1.9,3.4,3,3.4c0.7,0,1.3-0.2,1.3-0.2
		c0.1,0,0.1-0.1,0.1-0.2V18.4c0-0.1-0.1-0.2-0.2-0.2c-1.2,0-2.1,0.2-2.8,0.4c0.6-1.1,1.9-1.9,3.8-2.6c2-0.8,5.1-1.7,6.8-2.2l0.1,0.4
		c0,0,0,0,0,0c0.2,0.8,1.3,1.8,1.3,1.8c0,0,0.1,0,0.1,0c0,0,0,0,0.1,0c0.1,0,0.1-0.1,0.1-0.2v-5.5C13.9,10.4,13.8,10.3,13.8,10.3z"
		/>
	<path class="st2" d="M63.2,67.1h-8.4c-0.5,0-0.9,0.4-0.9,0.9c0,0.5,0.4,0.9,0.9,0.9h8.4c0.5,0,0.9-0.4,0.9-0.9
		C64.1,67.5,63.7,67.1,63.2,67.1z M343.7,67.1h-65.1c-0.5,0-0.9,0.4-0.9,0.9c0,0.5,0.4,0.9,0.9,0.9h65.1c0.5,0,0.9-0.4,0.9-0.9
		C344.6,67.5,344.2,67.1,343.7,67.1z M250.6,67.1H91.4c-0.5,0-0.9,0.4-0.9,0.9c0,0.5,0.4,0.9,0.9,0.9h159.2c0.5,0,0.9-0.4,0.9-0.9
		C251.5,67.5,251.1,67.1,250.6,67.1z"/>
</g>
</svg>
