<?xml version="1.0" encoding="utf-8"?>
<!-- Generator: Adobe Illustrator 24.1.2, SVG Export Plug-In . SVG Version: 6.00 Build 0)  -->
<svg version="1.1" id="Capa_2_1_" xmlns="http://www.w3.org/2000/svg" xmlns:xlink="http://www.w3.org/1999/xlink" x="0px" y="0px"
	 viewBox="0 0 267.75 267.75" style="enable-background:new 0 0 267.75 267.75;" xml:space="preserve">
<style type="text/css">
	.st0{fill:#5A5A5A;}
</style>
<path class="st0" d="M186.93,23.09H88.02c-5.62,0-10.17,4.55-10.17,10.17v204.66c0,5.62,4.55,10.17,10.17,10.17h98.91
	c5.62,0,10.17-4.55,10.17-10.17V33.26C197.1,27.65,192.54,23.09,186.93,23.09z M145.98,238.08h-17.02c-2.17,0-3.94-1.76-3.94-3.94
	s1.76-3.94,3.94-3.94h17.02c2.17,0,3.94,1.76,3.94,3.94S148.15,238.08,145.98,238.08z M190.16,222.37H84.78v-177h105.37v177H190.16z
	"/>
</svg>
