<?xml version="1.0" encoding="utf-8"?>
<!-- Generator: Adobe Illustrator 24.1.2, SVG Export Plug-In . SVG Version: 6.00 Build 0)  -->
<svg version="1.1" id="Capa_1" xmlns="http://www.w3.org/2000/svg" xmlns:xlink="http://www.w3.org/1999/xlink" x="0px" y="0px"
	 viewBox="0 0 582.1 116.7" style="enable-background:new 0 0 582.1 116.7;" xml:space="preserve">
<style type="text/css">
	.st0{fill:#61ACF8;}
</style>
<path class="st0" d="M80.9,45.5c-1.6-2.4-3.5-4.5-5.8-6.3c-2.3-1.8-4.8-3.2-7.5-4.1c-2.8-1-5.8-1.5-8.8-1.5c-3.6,0-7,0.7-10.3,2.1
	c-3.2,1.3-6,3.2-8.4,5.7c-2.4,2.5-4.3,5.3-5.7,8.4C33,53,32.3,56.4,32.3,60c0,3.6,0.7,7,2.1,10.3c1.3,3.2,3.2,6,5.7,8.4
	c2.5,2.4,5.3,4.3,8.4,5.7c3.3,1.4,6.7,2.1,10.3,2.1c5.2,0,10-1.4,14.4-4.3c4.2-2.8,7.4-6.4,9.6-11l-9-4.2c-1.3,2.9-3.3,5.2-6,6.9
	c-2.7,1.8-5.7,2.7-9,2.7c-4,0-7.5-1.3-10.5-3.8c-3-2.5-4.9-5.6-5.7-9.4H85c0.1-1.1,0.2-2.2,0.2-3.3c0-2.3-0.3-4.5-0.8-6.6
	C83.7,50.5,82.5,47.9,80.9,45.5z M43.6,53.4c1.3-3,3.3-5.4,6-7.2c2.8-1.8,5.8-2.8,9.2-2.8c3.3,0,6.4,0.9,9.2,2.8
	c2.7,1.8,4.7,4.2,6,7.2H43.6z M147.8,39.1c-4.8-3.7-10.2-5.6-16.2-5.6c-3.6,0-7,0.7-10.3,2.1c-3.2,1.3-6,3.2-8.4,5.7
	c-2.4,2.5-4.3,5.3-5.7,8.4c-1.4,3.3-2.1,6.7-2.1,10.3v24.8h9.9V60c0-2.2,0.4-4.4,1.3-6.5c0.8-2,2-3.7,3.6-5.2
	c1.5-1.5,3.3-2.7,5.2-3.6c2-0.8,4.2-1.3,6.5-1.3c3.8,0,7.1,1.2,10.1,3.5c2.9,2.3,4.9,5.2,5.8,8.8l9.6-2.6c-0.7-2.8-1.9-5.4-3.6-7.8
	C151.9,43,150,40.9,147.8,39.1z M214.2,60c0,1.3-0.1,2.6-0.5,3.8c-0.8,3.4-2.5,6.3-5.2,8.6c-3.1,2.8-6.8,4.1-10.9,4.1
	s-7.8-1.4-11-4.1c-2.6-2.3-4.3-5.2-5.1-8.6c-0.3-1.2-0.4-2.5-0.4-3.8V35.2h-9.9V60c0,4.4,1,8.5,3.1,12.4c1.8,3.4,4.2,6.3,7.3,8.6
	c4.7,3.6,10.1,5.5,16.1,5.5c0.9,0,1.8,0,2.6-0.1c5-0.5,9.5-2.3,13.4-5.3c0.1-0.1,0.3-0.2,0.5-0.3v4.1c0,3-0.7,5.7-2.2,8.3l8.6,5
	c2.4-4.1,3.6-8.5,3.6-13.2V35.2h-9.9L214.2,60L214.2,60z M280.4,34.1l-17.3,19.1l-17.3-19.1l-6.8,6.2L256.8,60l-17.9,19.7l6.8,6.2
	l17.3-19.1L280.4,86l6.8-6.2L269.3,60l17.9-19.7L280.4,34.1z M341.5,84.8h9.9V25.3h-9.9V84.8z M416.5,41.3c-2.5-2.4-5.3-4.3-8.4-5.7
	c-3.3-1.4-6.7-2.1-10.3-2.1c-3.6,0-7,0.7-10.3,2.1c-3.2,1.3-6,3.2-8.4,5.7c-2.4,2.5-4.3,5.3-5.7,8.4c-1.4,3.3-2.1,6.7-2.1,10.3
	c0,3.6,0.7,7,2.1,10.3c1.4,3.2,3.2,6,5.7,8.4c2.5,2.4,5.3,4.3,8.4,5.7c3.3,1.4,6.7,2.1,10.3,2.1c3.1,0,6.1-0.5,8.9-1.5
	c2.8-1,5.3-2.4,7.6-4.3v4.1h9.9V60c0-3.6-0.7-7-2.1-10.3C420.8,46.5,418.9,43.7,416.5,41.3z M413,66.4c-0.8,2-2,3.7-3.5,5.2
	c-1.5,1.5-3.3,2.7-5.2,3.6c-2.1,0.8-4.2,1.3-6.5,1.3c-2.3,0-4.4-0.4-6.5-1.3c-2-0.8-3.7-2-5.2-3.6c-1.5-1.5-2.7-3.3-3.6-5.2
	c-0.9-2.1-1.3-4.2-1.3-6.5s0.4-4.4,1.3-6.5c0.9-2,2-3.7,3.6-5.2c1.5-1.5,3.3-2.7,5.2-3.6c2-0.8,4.2-1.3,6.5-1.3
	c2.2,0,4.4,0.4,6.5,1.3c2,0.8,3.7,2,5.2,3.6c1.5,1.5,2.7,3.3,3.5,5.2c0.9,2.1,1.3,4.2,1.3,6.5S413.9,64.4,413,66.4z M490.9,41.3
	c-2.5-2.4-5.3-4.3-8.4-5.7c-3.3-1.4-6.7-2.1-10.3-2.1c-3.1,0-6.1,0.5-8.9,1.5c-2.8,1-5.3,2.4-7.6,4.3V25.3h-9.9V60
	c0,3.6,0.7,7,2.1,10.3c1.4,3.2,3.2,6,5.7,8.4c2.5,2.4,5.3,4.3,8.4,5.7c3.3,1.4,6.7,2.1,10.3,2.1s7-0.7,10.3-2.1
	c3.2-1.3,6-3.2,8.4-5.7c2.4-2.4,4.3-5.3,5.7-8.4c1.4-3.3,2.1-6.7,2.1-10.3s-0.7-7-2.1-10.3C495.2,46.5,493.3,43.7,490.9,41.3z
	 M487.4,66.4c-0.8,2-2,3.7-3.5,5.2c-1.5,1.5-3.3,2.7-5.2,3.6c-2.1,0.8-4.2,1.3-6.5,1.3s-4.4-0.4-6.5-1.3c-2-0.8-3.7-2-5.2-3.6
	c-1.5-1.5-2.7-3.3-3.6-5.2c-0.9-2.1-1.3-4.2-1.3-6.5s0.4-4.4,1.3-6.5c0.9-2,2-3.7,3.6-5.2c1.5-1.5,3.3-2.7,5.2-3.6
	c2.1-0.8,4.2-1.3,6.5-1.3s4.4,0.4,6.5,1.3c2,0.8,3.7,2,5.2,3.6c1.5,1.5,2.7,3.3,3.5,5.2c0.9,2.1,1.3,4.2,1.3,6.5
	S488.3,64.4,487.4,66.4z M548.6,62.7c-0.8-1.6-1.8-3.1-3.1-4.3c-1.3-1.2-2.7-2.2-4.4-2.9c-1.7-0.7-3.5-1.1-5.4-1.1h-7
	c-1.4,0-2.7-0.5-3.7-1.5c-1.1-1-1.7-2.2-1.8-3.6c-0.1-0.8-0.1-1.5,0-2.1c0.1-1.5,0.7-2.7,1.8-3.7c1-1,2.3-1.5,3.7-1.5h19.6v-8.8
	h-19.6c-1.9,0-3.7,0.3-5.3,1c-1.7,0.7-3.2,1.6-4.4,2.9c-1.3,1.2-2.3,2.7-3.1,4.3c-0.8,1.6-1.2,3.4-1.3,5.2c-0.1,0.4-0.1,0.9-0.1,1.6
	c0,0.7,0,1.2,0.1,1.6c0.1,1.9,0.5,3.7,1.3,5.3s1.8,3,3.1,4.2s2.8,2.1,4.4,2.8c1.7,0.7,3.5,1,5.3,1h6.9c1.6,0,2.9,0.5,3.9,1.6
	c1,1.1,1.6,2.4,1.7,3.9v1.9c0,0.1,0,0.2,0,0.4c0,0.1,0,0.2,0,0.4v0.4c-0.3,1.2-1,2.3-2,3.2c-1,0.9-2.2,1.3-3.5,1.3h-20.1v8.7h20.1
	c2,0,3.8-0.4,5.6-1.1s3.2-1.7,4.5-3s2.3-2.8,3.1-4.4c0.8-1.7,1.2-3.5,1.2-5.5V68C549.8,66.1,549.3,64.3,548.6,62.7z"/>
</svg>
