<?xml version="1.0" encoding="utf-8"?>
<!-- Generator: Adobe Illustrator 24.1.2, SVG Export Plug-In . SVG Version: 6.00 Build 0)  -->
<svg version="1.1" id="Capa_1" xmlns="http://www.w3.org/2000/svg" xmlns:xlink="http://www.w3.org/1999/xlink" x="0px" y="0px"
	 viewBox="0 0 156 156" style="enable-background:new 0 0 156 156;" xml:space="preserve">
<style type="text/css">
	.st0{fill:url(#SVGID_1_);}
</style>
<linearGradient id="SVGID_1_" gradientUnits="userSpaceOnUse" x1="80.0002" y1="41.7684" x2="80.0002" y2="114.2316">
	<stop  offset="0" style="stop-color:#F8D31D"/>
	<stop  offset="0.5957" style="stop-color:#F0EDA4"/>
	<stop  offset="0.6368" style="stop-color:#E6EAA7"/>
	<stop  offset="0.7078" style="stop-color:#C9E2B0"/>
	<stop  offset="0.8002" style="stop-color:#9CD5BE"/>
	<stop  offset="0.9093" style="stop-color:#5DC4D1"/>
	<stop  offset="1" style="stop-color:#24B4E3"/>
</linearGradient>
<path class="st0" d="M146.27,98.65l-26.8-50.11c-3.38-6.26-11.19-8.61-17.46-5.23c-2.21,1.19-3.91,2.93-5.07,4.96
	c-0.04,0.05-11.61,21.67-19.58,36.57c-1.85-3.79-4.97-6.84-8.81-8.59c4.36-3.41,7.2-8.84,7.2-14.97c0-10.32-10.99-18.69-17.87-18.69
	H19.47c-3.87,0-7,3.28-7,7.32v56.41c0,3.93,3.19,7.12,7.12,7.12h41.44c3.73,0,7.2-1.13,10.09-3.06c0.85,1.03,1.9,1.92,3.14,2.59
	c5.14,2.77,11.54,0.85,14.31-4.29c0.66-1.23,1.04-2.52,1.18-3.82h36.73c0.15,1.3,0.52,2.6,1.18,3.82c2.77,5.14,9.18,7.06,14.31,4.29
	C147.12,110.2,149.04,103.79,146.27,98.65z"/>
</svg>
