<?xml version="1.0" encoding="utf-8"?>
<!-- Generator: Adobe Illustrator 24.1.2, SVG Export Plug-In . SVG Version: 6.00 Build 0)  -->
<svg version="1.1" id="Capa_1" xmlns="http://www.w3.org/2000/svg" xmlns:xlink="http://www.w3.org/1999/xlink" x="0px" y="0px"
	 viewBox="0 0 156 156" style="enable-background:new 0 0 156 156;" xml:space="preserve">
<style type="text/css">
	.st0{fill:#79BEC0;}
	.st1{fill:#FFFFFF;}
</style>
<polygon class="st0" points="6.6,123.33 26.23,142.96 45.86,123.33 "/>
<path class="st1" d="M142.02,24.26c0,0-10.47-14.26-23.04-10.63c-10.53,3.04-17.52,14.02-14.68,23.37l-5.46-6.1
	c-9.04,6.71-3.27,15.78-3.27,15.78l-6.16-5.18l-8.36,8.36l11.2,11.01c-4.44-3.2-10.5-5.91-16.89-3.77
	C63.35,61.1,57.53,73.37,62.39,83.61c0.74,1.55,1.61,3.01,2.57,4.38l-1.14-1.14c-2.14-2.14-5.35-4.44-9.91-4.79
	s-8.42,1.23-11.96,5.15c-3.53,3.92-4.05,8.39-3.34,10.4L21.08,80.08l-9.14,9.14l34.12,34.12l18.27,0l-12.91-12.91
	c-1.66-1.66-3.28-3.48-3.84-5.26c-1.04-3.37-0.59-5.35,1.13-7.07c1.71-1.72,3.92-1.61,5.48-1.03c1.85,0.69,3.95,2.4,4.92,3.37
	c0.97,0.97,14.63,14.63,14.63,14.63l9.14-9.14L71.97,95c4.38,3,9.5,4.49,14.67,3.69c10.4-1.6,18.61-13.95,19.2-16.77l-6.85-4.71
	c0,0-2.15,4.61-7.68,8.84c-5.39,4.13-9.57-0.73-9.57-0.73l17.55-17.55l11.12,10.94l9.72-9.72l-14.55-14.51
	c-3.67-3.67-3.67-9.62,0-13.28c0.15-0.15,0.32-0.25,0.47-0.38c5.41,8.98,14.42,15.94,24.01,14.46c10.4-1.6,18.58-13.12,19.35-16.73
	l-7.51-4.59c0,0-2.21,4.4-7.13,8.44c-5.62,4.62-10.4-0.49-10.4-0.49L142.02,24.26z M115.04,30.83c-1.26-3.4,1.74-6.74,4.63-7.1
	c3.47-0.42,6.82,3.22,6.82,3.22l-8.43,8.43C118.06,35.39,116.04,33.55,115.04,30.83z M74.54,78.91c0,0-1.91-1.95-2.92-4.67
	c-1.26-3.4,1.75-6.67,4.63-7.1c2.88-0.42,6.71,3.34,6.71,3.34L74.54,78.91z"/>
</svg>
