<?xml version="1.0" encoding="utf-8"?>
<!-- Generator: Adobe Illustrator 24.1.2, SVG Export Plug-In . SVG Version: 6.00 Build 0)  -->
<svg version="1.1" id="Capa_2_1_" xmlns="http://www.w3.org/2000/svg" xmlns:xlink="http://www.w3.org/1999/xlink" x="0px" y="0px"
	 viewBox="0 0 269.01 135.08" style="enable-background:new 0 0 269.01 135.08;" xml:space="preserve">
<style type="text/css">
	.st0{fill:#FFFFFF;}
	.st1{fill:#636362;}
</style>
<path id="fadu" class="st0" d="M25.56,89.9l6.94,6.58l4.52-3l50.84,17.18l8.57-8.14l-59.4-21.44L25.56,89.9z M59.28,121.91
	l12.79,3.75l8.78-8.33l-38.19-11.19L59.28,121.91z M37.02,31.48L6.31,65.12c1.23,2.37,2.56,4.62,3.9,6.7l26.81-27.94l79.95,38.65
	c1.66-1.93,3.74-4.51,5.89-7.58L37.02,31.48z M14.66,78.09c1.86,2.42,3.56,4.39,4.85,5.81l17.51-15.22l66.18,27.43l7.85-7.45
	L37.02,56.28L14.66,78.09z"/>
<path id="faduviva" class="st1" d="M155.93,66.91c0.55,0,1.02-0.16,1.41-0.49c0.39-0.33,0.59-0.79,0.59-1.41V53.99h11.1
	c0.49,0,0.88-0.15,1.16-0.46s0.42-0.67,0.42-1.1c0-0.42-0.14-0.77-0.42-1.07s-0.67-0.45-1.16-0.45h-11.1v-8.77h11.63
	c0.5,0,0.88-0.16,1.15-0.47c0.27-0.31,0.41-0.68,0.41-1.11s-0.14-0.8-0.41-1.1c-0.27-0.31-0.66-0.46-1.15-0.46h-13.7
	c-0.52,0-0.97,0.18-1.34,0.54s-0.56,0.82-0.56,1.38v24.12c0,0.6,0.2,1.06,0.59,1.4C154.93,66.75,155.39,66.91,155.93,66.91z
	 M193.68,59.8l2.31,5.94c0.33,0.86,0.92,1.29,1.8,1.29c0.51,0,0.96-0.16,1.37-0.49c0.4-0.33,0.61-0.74,0.61-1.23
	c0-0.21-0.05-0.45-0.16-0.72l-9.28-23.04c-0.44-1.11-0.92-1.84-1.44-2.2c-0.51-0.36-1.16-0.54-1.92-0.54s-1.41,0.18-1.92,0.54
	s-0.99,1.09-1.44,2.2l-9.28,23.04c-0.1,0.27-0.16,0.52-0.16,0.72c0,0.5,0.2,0.91,0.6,1.23s0.85,0.49,1.36,0.49
	c0.89,0,1.49-0.43,1.82-1.29l2.31-5.94H193.68z M186.96,42.52l5.61,14.44h-11.22L186.96,42.52z M228.01,52.96
	c0-4.57-1.28-8.05-3.83-10.45c-2.55-2.39-6.28-3.59-11.18-3.59h-6.66c-0.55,0-1.01,0.19-1.4,0.56c-0.38,0.37-0.58,0.82-0.58,1.36
	v24.1c0,0.53,0.19,0.99,0.58,1.36c0.38,0.37,0.85,0.56,1.4,0.56h6.84c4.73,0,8.38-1.19,10.96-3.57
	C226.73,60.91,228.01,57.47,228.01,52.96z M223.37,57.62c-0.37,1.31-0.96,2.43-1.77,3.36s-1.9,1.62-3.25,2.07
	c-1.36,0.45-3.01,0.67-4.96,0.67h-5.06V42.07h4.4c3.87,0,6.7,0.83,8.5,2.5s2.7,4.44,2.7,8.33C223.9,54.74,223.73,56.31,223.37,57.62
	z M255.5,39.44c-0.38-0.34-0.84-0.51-1.38-0.51c-0.55,0-1.02,0.17-1.41,0.51s-0.59,0.81-0.59,1.41V57.1c0,1.17-0.2,2.22-0.61,3.15
	c-0.4,0.93-0.94,1.67-1.62,2.23s-1.43,0.98-2.27,1.27c-0.83,0.29-1.71,0.43-2.62,0.43s-1.78-0.14-2.61-0.43s-1.58-0.71-2.25-1.27
	s-1.21-1.3-1.61-2.23c-0.4-0.92-0.61-1.97-0.61-3.15V40.84c0-0.6-0.2-1.07-0.59-1.41s-0.85-0.51-1.39-0.51
	c-0.55,0-1.02,0.17-1.41,0.51s-0.59,0.81-0.59,1.41V57.2c0,1.65,0.3,3.14,0.9,4.46c0.6,1.32,1.41,2.38,2.44,3.2
	c1.03,0.81,2.2,1.43,3.51,1.86c1.31,0.42,2.71,0.63,4.19,0.63c1.19,0,2.32-0.13,3.39-0.39c1.08-0.26,2.08-0.66,3.02-1.21
	c0.94-0.55,1.75-1.21,2.43-2s1.22-1.74,1.62-2.85s0.6-2.34,0.6-3.68V40.84C256.07,40.24,255.88,39.77,255.5,39.44z M174.71,76.43
	c-0.41-0.33-0.88-0.5-1.4-0.5c-0.87,0-1.46,0.42-1.76,1.25l-8.13,22.59l-8.11-22.59c-0.3-0.83-0.89-1.25-1.76-1.25
	c-0.52,0-0.99,0.17-1.41,0.5s-0.62,0.75-0.62,1.24c0,0.2,0.04,0.4,0.12,0.62l8.46,23.02c0.68,1.84,1.79,2.75,3.32,2.75
	s2.64-0.92,3.32-2.75l8.46-23.02c0.08-0.22,0.12-0.43,0.12-0.62C175.32,77.17,175.12,76.76,174.71,76.43z M182.06,75.97
	c-0.53,0-1,0.17-1.4,0.51c-0.4,0.34-0.6,0.8-0.6,1.39v24.15c0,0.59,0.19,1.05,0.58,1.38c0.38,0.33,0.84,0.5,1.38,0.5
	c0.55,0,1.02-0.16,1.41-0.49c0.39-0.33,0.59-0.79,0.59-1.39V77.86c0-0.6-0.19-1.07-0.58-1.4C183.04,76.13,182.59,75.97,182.06,75.97
	z M212.14,76.43c-0.41-0.33-0.88-0.5-1.4-0.5c-0.87,0-1.46,0.42-1.76,1.25l-8.13,22.59l-8.11-22.59c-0.3-0.83-0.89-1.25-1.76-1.25
	c-0.52,0-0.99,0.17-1.41,0.5s-0.62,0.75-0.62,1.24c0,0.2,0.04,0.4,0.12,0.62l8.46,23.02c0.68,1.84,1.79,2.75,3.32,2.75
	s2.64-0.92,3.32-2.75l8.46-23.02c0.08-0.22,0.12-0.43,0.12-0.62C212.76,77.17,212.54,76.76,212.14,76.43z M230.85,78.55
	c-0.44-1.11-0.92-1.84-1.44-2.2s-1.16-0.54-1.92-0.54s-1.41,0.18-1.92,0.54s-0.99,1.09-1.44,2.2l-9.28,23.04
	c-0.1,0.27-0.16,0.51-0.16,0.72c0,0.5,0.2,0.91,0.6,1.23c0.4,0.33,0.85,0.49,1.36,0.49c0.89,0,1.49-0.43,1.82-1.29l2.31-5.94h13.45
	l2.31,5.94c0.33,0.86,0.92,1.29,1.8,1.29c0.51,0,0.96-0.16,1.37-0.49c0.4-0.33,0.61-0.74,0.61-1.23c0-0.21-0.05-0.45-0.16-0.72
	L230.85,78.55z M221.88,93.96l5.61-14.44l5.61,14.44H221.88z"/>
</svg>
